<?xml version="1.0" encoding="UTF-8" standalone="no"?>
<svg width="46px" height="46px" viewBox="0 0 46 46" version="1.1" xmlns="http://www.w3.org/2000/svg" xmlns:xlink="http://www.w3.org/1999/xlink">
    <!-- Generator: Sketch 41.2 (35397) - http://www.bohemiancoding.com/sketch -->
    <title>Help-More Info Icon</title>
    <desc>Created with Sketch.</desc>
    <defs></defs>
    <g id="Component-Style-Guide" stroke="none" stroke-width="1" fill="none" fill-rule="evenodd">
        <g id="CX-StyleGuide-Iconography-Copy" transform="translate(-653.000000, -530.000000)" fill="#19223C">
            <g id="Help-More-Info-Icon" transform="translate(653.000000, 530.000000)">
                <path d="M26.5784,22.0639 C28.4924,20.8389 29.6334,18.7299 29.6334,16.4179 C29.6334,12.9369 26.7254,10.3119 22.8714,10.3119 C19.3264,10.3119 16.4304,13.1349 16.3104,16.6509 L18.4754,16.6509 C18.5944,14.3299 20.5204,12.4759 22.8714,12.4759 C25.0994,12.4759 27.4684,13.8579 27.4684,16.4179 C27.4684,18.0119 26.7244,19.4029 25.4274,20.2339 C25.3884,20.2569 21.7754,22.5309 21.7754,26.1459 L21.7754,29.9089 L23.9404,29.9089 L23.9404,26.1459 C23.9404,23.8139 26.4724,22.1339 26.5784,22.0639" id="Fill-140"></path>
                <polygon id="Fill-141" points="21.7757 34.641 23.9407 34.641 23.9407 32.294 21.7757 32.294"></polygon>
                <path d="M39.305,6.9995 L37.786,8.4835 C43.66,14.5015 45.264,23.3635 41.87,31.0625 C37.315,41.3965 25.2,46.1015 14.864,41.5425 L14.007,43.4875 C16.965,44.7915 20.053,45.4075 23.095,45.4075 C31.786,45.4065 40.09,40.3695 43.815,31.9205 C47.561,23.4235 45.791,13.6415 39.305,6.9995" id="Fill-142"></path>
                <path d="M15.7161,3.7046 C20.8171,1.7256 26.3851,1.8496 31.3911,4.0576 L32.2481,2.1116 C26.7211,-0.3224 20.5761,-0.4624 14.9471,1.7236 C9.3181,3.9086 4.8751,8.1556 2.4401,13.6816 C-1.2609,22.0726 0.4401,31.7816 6.7701,38.4156 L8.3081,36.9486 C2.5721,30.9376 1.0311,22.1416 4.3851,14.5386 C6.5911,9.5316 10.6151,5.6836 15.7161,3.7046" id="Fill-143"></path>
            </g>
        </g>
    </g>
</svg>